<svg viewBox="0 0 52 52" xml:space="preserve" xmlns="http://www.w3.org/2000/svg" enable-background="new 0 0 52 52"><path d="m5.561 4.389 35.793.126c2.974.01 3.544-.365 5.89 1.692 2.18 1.912 1.93 1.936 1.985 4.444.062 2.767.087 5.534.097 8.301.016 4.867 1.653 15.106-2.585 18.074-4.22 2.956-12.757 1.604-17.864 1.615a569.905 569.905 0 0 1-17.12-.237c-4.636-.13-8.76-1.16-9.01-6.713-.127-2.808-.05-5.638-.074-8.448C2.642 19.593.401 4.325 6.425 4.102c1.443-.053 1.45-2.304 0-2.25C-.117 2.094.29 7.878.335 12.918l.113 13.14c.028 3.244-.73 7.91 1.06 10.864 2.915 4.811 10.282 3.745 15.003 3.84 9.5.193 19.036.285 28.525-.292 1.915-.116 3.335.002 4.593-1.487 1.824-2.161 1.783-6.672 1.899-9.347.18-4.164.067-8.362.04-12.529-.023-3.408.425-7.324-.275-10.688-1.337-6.434-11.26-4.158-15.904-4.175L5.56 2.14c-1.448-.006-1.45 2.244 0 2.25z" fill="#ffffff" class="fill-231f20"></path><path d="M1.937 32.59h47.625c1.448 0 1.45-2.25 0-2.25H1.937c-1.448 0-1.45 2.25 0 2.25zM25.187 36.965c1.448 0 1.45-2.25 0-2.25-1.448 0-1.45 2.25 0 2.25zM16.613 11.397c-2.1 2.256-4.904 4.126-6.675 6.64-.327.464-.116 1.3.403 1.539.898.415 1.868.453 2.725.93 1.05.583 1.924 1.544 2.817 2.338 1.078.96 2.675-.625 1.59-1.59-.932-.83-1.846-1.791-2.882-2.49-1.018-.686-2.043-.636-3.114-1.13l.403 1.538c.842-1.195 2.101-2.062 3.17-3.039a55.522 55.522 0 0 0 3.154-3.145c.986-1.058-.602-2.653-1.591-1.59z" fill="#ffffff" class="fill-231f20"></path><path d="m16.494 22.936.5.375c.486.365 1.257.079 1.54-.403.336-.575.083-1.174-.404-1.54l-.5-.374c-.487-.365-1.258-.079-1.54.403-.336.575-.084 1.174.404 1.54zM29.608 9.17c-1.012 2.777-3.925 5.324-5.67 7.711-1.757 2.404-3.278 4.911-4.44 7.657-.558 1.318 1.38 2.466 1.943 1.136 1.352-3.195 3.203-6.049 5.3-8.803 1.72-2.256 4.055-4.41 5.037-7.104.496-1.362-1.678-1.95-2.17-.598zM33.595 13.416c.907 1.073 4.41 3.568 3.81 5.152-.245.648-1.825 1.546-2.349 2.044a34.94 34.94 0 0 0-2.233 2.357c-.95 1.086.636 2.684 1.591 1.591 1.266-1.448 2.642-2.682 4.065-3.963.805-.724 1.551-1.454 1.544-2.616-.017-2.442-3.41-4.467-4.837-6.156-.935-1.107-2.52.491-1.59 1.591zM17.523 50.088c2.817-.711 5.912-1.849 8.835-1.95 2.915-.103 5.133 1.593 7.915 1.997 1.417.206 2.028-1.962.599-2.17-3.047-.442-5.3-2.231-8.514-2.078-3.19.152-6.36 1.255-9.433 2.031-1.403.354-.809 2.525.598 2.17z" fill="#ffffff" class="fill-231f20"></path><path d="M30.437 40.59v6.375c0 1.448 2.25 1.45 2.25 0V40.59c0-1.448-2.25-1.45-2.25 0zM20.062 40.215v7.875c0 1.448 2.25 1.45 2.25 0v-7.875c0-1.448-2.25-1.45-2.25 0z" fill="#ffffff" class="fill-231f20"></path></svg>