<svg viewBox="0 0 32 32" xmlns="http://www.w3.org/2000/svg"><g data-name="preset, interface, menu, setting, gear, editing tool, option"><path d="M28.16 2H3.84A1.85 1.85 0 0 0 2 3.84v24.32A1.85 1.85 0 0 0 3.84 30h24.32A1.85 1.85 0 0 0 30 28.16V3.84A1.85 1.85 0 0 0 28.16 2ZM28 28H4V4h24Z" fill="#ffffff" class="fill-000000"></path><path d="M7.09 26a3.23 3.23 0 0 0 3.2-2.73l1.49-9.34a1.2 1.2 0 0 1 1.23-1 1.18 1.18 0 0 1 1.22 1l.85 5.26a3.17 3.17 0 0 0 3.13 2.72 3.13 3.13 0 0 0 3.24-2.58L23.61 9a1.25 1.25 0 0 1 1.21-1H25a1 1 0 0 0 0-2h-.18a3.24 3.24 0 0 0-3.17 2.58L19.5 18.92a1.19 1.19 0 0 1-1.22 1 1.18 1.18 0 0 1-1.19-1l-.85-5.26A3.19 3.19 0 0 0 13 10.88a3.19 3.19 0 0 0-3.2 2.73L8.31 23a1.23 1.23 0 0 1-1.22 1H7a1 1 0 0 0-1 1 1 1 0 0 0 1.09 1Z" fill="#ffffff" class="fill-000000"></path></g></svg>