<svg viewBox="0 0 91 91" xml:space="preserve" xmlns="http://www.w3.org/2000/svg"><path d="M43.903 85.854h-8.017a2.513 2.513 0 1 0 0 5.026h21.06a2.513 2.513 0 1 0 0-5.026h-8.018v-6.016c16.232-.68 28.662-9.162 28.662-19.873a2.513 2.513 0 1 0-5.026 0c0 8.074-11.787 14.896-25.74 14.896h-.814c-13.95 0-25.735-6.822-25.735-14.896a2.513 2.513 0 1 0-5.026 0c0 10.711 12.426 19.191 28.653 19.871v6.018z" fill="#ffffff" class="fill-000000"></path><path d="M83.196 37.082H61.628l-2.965-9.939a2.512 2.512 0 0 0-2.406-1.795l-.076.002a2.512 2.512 0 0 0-2.371 1.941l-2.205 9.459-2.834-16.824a2.51 2.51 0 0 0-2.395-2.094c-1.24-.047-2.252.771-2.527 1.934L39.88 36.57l-2.81-7.275c-.389-1.006-1.346-1.631-2.449-1.605a2.513 2.513 0 0 0-2.307 1.805l-2.223 7.588H8.898a2.513 2.513 0 0 0 0 5.026h17.816v9.154c0 8.561 8.732 15.525 19.464 15.525h.48c10.73 0 19.461-6.965 19.461-15.525v-9.154h17.076a2.512 2.512 0 0 0 2.512-2.512 2.512 2.512 0 0 0-2.511-2.515zm-22.101 14.18c0 5.789-6.477 10.5-14.436 10.5h-.48c-7.962 0-14.438-4.711-14.438-10.5v-9.154h.232a2.512 2.512 0 0 0 2.412-1.807l.668-2.283 3.066 7.932a2.512 2.512 0 0 0 4.788-.328l2.975-12.598 2.85 16.914a2.513 2.513 0 0 0 2.398 2.096h.08a2.51 2.51 0 0 0 2.445-1.941l2.898-12.441.795 2.662a2.512 2.512 0 0 0 2.408 1.795h1.338v9.153z" fill="#ffffff" class="fill-000000"></path><path d="M63.608 31.326a2.513 2.513 0 0 0 2.514-2.514V15.957c0-8.563-8.73-15.531-19.463-15.531h-.482c-10.731 0-19.462 6.969-19.462 15.531v10a2.512 2.512 0 0 0 5.026 0v-10c0-5.793 6.477-10.506 14.437-10.506h.482c7.961 0 14.438 4.713 14.438 10.506v12.855a2.511 2.511 0 0 0 2.51 2.514z" fill="#ffffff" class="fill-000000"></path></svg>